<svg width="30" height="53" viewBox="0 0 30 53" fill="none" xmlns="http://www.w3.org/2000/svg">
<g clip-path="url(#clip0_76451_2)">
<path d="M28.046 5.83682C19.8276 13.8113 21.092 26.2159 21.1494 26.7476L21.2644 27.7517L22.2414 27.8699C22.5287 27.9289 24.1954 28.2834 23.9655 30.9415C23.7931 33.2452 21.2644 33.5997 20.2299 33.7178C19.3678 32.5364 16.5517 27.6336 16.2644 13.575C16.2644 12.8661 16.2644 12.1573 16.2644 11.4485C16.2644 11.4485 16.4943 6.42752 16.7241 4.301L15.0575 0.638672L13.3333 4.18286C13.5632 6.30938 13.7931 11.3303 13.7931 11.3303C13.7931 12.0392 13.7931 12.748 13.7931 13.4568C13.5057 27.5155 10.6897 32.4773 9.82759 33.5997C8.73563 33.5406 6.26437 33.1271 6.09195 30.8234C5.86207 28.1652 7.52874 27.8108 7.81609 27.7517L8.7931 27.6336L8.90805 26.6294C8.96552 26.0978 10.2299 13.6931 2.01149 5.71868L0 3.88751V42.1057H8.33333C9.02299 47.7174 14.023 51.9113 14.2529 52.0885L15 52.7383L15.7471 52.0885C15.977 51.9113 21.0345 47.7174 21.6667 42.1057H30V3.88751L28.046 5.83682ZM6.6092 25.6252C5.4023 26.0978 3.96552 27.3382 3.73563 29.701H2.41379V9.97171C6.6092 15.7606 6.66667 23.1443 6.6092 25.6252ZM8.16092 38.4434L8.21839 39.6248H2.41379V32.1229H3.90805C4.54023 34.4857 6.6092 35.4899 8.50575 35.9034C8.16092 37.0848 8.16092 38.2662 8.16092 38.4434ZM10.5747 38.3843C10.5747 37.7345 10.6322 36.7894 10.9195 36.1987C13.046 36.6713 13.6207 38.4434 13.7931 39.6838H10.6322L10.5747 38.3843ZM13.8506 48.1899C12.6437 46.7132 11.2069 44.5866 10.8046 42.1057H13.8506V48.1899ZM15.3448 35.7262C15.2299 35.8443 15.1149 36.0215 15 36.1987C14.8851 36.0215 14.7701 35.9034 14.6552 35.7262C14.023 35.0173 13.2759 34.4266 12.4138 34.0722C13.2184 32.6545 14.1954 30.2917 15 26.3341C15.8046 30.2917 16.7816 32.7136 17.5862 34.0722C16.7241 34.4266 15.977 34.9583 15.3448 35.7262ZM16.2069 48.1308V42.1057H19.2529C18.908 44.5276 17.4713 46.6541 16.2069 48.1308ZM19.4828 38.3843L19.4253 39.6248H16.2644C16.4368 38.3843 17.0115 36.6122 19.1379 36.1397C19.4253 36.7894 19.4828 37.7345 19.4828 38.3843ZM23.4483 25.6252C23.3333 23.2034 23.4483 15.8196 27.6437 9.97171V29.701H26.3218C26.092 27.2792 24.7126 26.0978 23.4483 25.6252ZM21.8391 39.6248L21.8966 38.4434C21.8966 38.2662 21.954 37.0848 21.6092 35.9034C23.4483 35.549 25.5172 34.4857 26.2069 32.1229H27.7011V39.6248H21.8391Z" fill="#F2CD13"/>
</g>
<defs>
<clipPath id="clip0_76451_2">
<rect width="30" height="53" fill="white"/>
</clipPath>
</defs>
</svg>
